<svg id="visual" viewBox="0 0 675 900" width="675" height="900" xmlns="http://www.w3.org/2000/svg" xmlns:xlink="http://www.w3.org/1999/xlink" version="1.1"><path d="M0 543L96 649L193 596L289 599L386 565L482 556L579 570L675 650L675 901L579 901L482 901L386 901L289 901L193 901L96 901L0 901Z" fill="#ceffbe"></path><path d="M0 713L96 666L193 609L289 704L386 627L482 655L579 682L675 653L675 901L579 901L482 901L386 901L289 901L193 901L96 901L0 901Z" fill="#cbffaa"></path><path d="M0 721L96 698L193 693L289 760L386 722L482 699L579 693L675 753L675 901L579 901L482 901L386 901L289 901L193 901L96 901L0 901Z" fill="#ccff93"></path><path d="M0 762L96 811L193 756L289 733L386 731L482 769L579 758L675 791L675 901L579 901L482 901L386 901L289 901L193 901L96 901L0 901Z" fill="#d0ff7a"></path><path d="M0 796L96 831L193 800L289 860L386 821L482 816L579 841L675 860L675 901L579 901L482 901L386 901L289 901L193 901L96 901L0 901Z" fill="#d7ff5d"></path></svg>