<svg id="visual" viewBox="0 0 675 900" width="675" height="900" xmlns="http://www.w3.org/2000/svg" xmlns:xlink="http://www.w3.org/1999/xlink" version="1.1"><path d="M0 137L16 138.2C32 139.3 64 141.7 96.2 146.2C128.3 150.7 160.7 157.3 192.8 182.8C225 208.3 257 252.7 289.2 251.7C321.3 250.7 353.7 204.3 385.8 207.7C418 211 450 264 482.2 258.7C514.3 253.3 546.7 189.7 578.8 179C611 168.3 643 210.7 659 231.8L675 253L675 0L659 0C643 0 611 0 578.8 0C546.7 0 514.3 0 482.2 0C450 0 418 0 385.8 0C353.7 0 321.3 0 289.2 0C257 0 225 0 192.8 0C160.7 0 128.3 0 96.2 0C64 0 32 0 16 0L0 0Z" fill="#9bc3ff" stroke-linecap="round" stroke-linejoin="miter"></path></svg>