<svg id="visual" viewBox="0 0 675 900" width="675" height="900" xmlns="http://www.w3.org/2000/svg" xmlns:xlink="http://www.w3.org/1999/xlink" version="1.1"><path d="M0 761L16 759.8C32 758.7 64 756.3 96.2 751.8C128.3 747.3 160.7 740.7 192.8 715.2C225 689.7 257 645.3 289.2 646.3C321.3 647.3 353.7 693.7 385.8 690.3C418 687 450 634 482.2 639.3C514.3 644.7 546.7 708.3 578.8 719C611 729.7 643 687.3 659 666.2L675 645L675 901L659 901C643 901 611 901 578.8 901C546.7 901 514.3 901 482.2 901C450 901 418 901 385.8 901C353.7 901 321.3 901 289.2 901C257 901 225 901 192.8 901C160.7 901 128.3 901 96.2 901C64 901 32 901 16 901L0 901Z" fill="#9bc3ff" stroke-linecap="round" stroke-linejoin="miter"></path></svg>